<svg version="1.1" id="Layer_1" xmlns:x="ns_extend;" xmlns:i="ns_ai;" xmlns:graph="ns_graphs;" xmlns="http://www.w3.org/2000/svg" xmlns:xlink="http://www.w3.org/1999/xlink" x="0px" y="0px" viewBox="0 0 131 50.5" style="enable-background:new 0 0 131 50.5;" xml:space="preserve">
 <style type="text/css">
  .st0{fill-rule:evenodd;clip-rule:evenodd;fill:#FF4338;}
	.st1{fill:#FF4338;}
 </style>
 <metadata>
  <sfw xmlns="ns_sfw;">
   <slices>
   </slices>
   <sliceSourceBounds bottomLeftOrigin="true" height="50.5" width="131" x="134.8" y="-225.4">
   </sliceSourceBounds>
  </sfw>
 </metadata>
 <g>
  <path class="st0" d="M2.2,21.6h18.8c1.7,0,3.3,0.3,4.8,0.8c1-3.1,1.3-5.8,1.3-7.9c0-6.9-5.6-12.4-12.5-12.4
		C7.8,2.1,2.2,7.7,2.2,14.6V21.6z M2.2,23.5v24.1C16,39.4,22.3,31,25.1,24.2c-1.3-0.5-2.7-0.7-4.1-0.7H2.2z M4.6,48.4h16.3
		c6.9,0,12.5-5.6,12.5-12.4c0-4.7-2.6-8.8-6.5-10.9c-1.9,4.7-5.1,9.2-9.6,13.6C12.6,43.2,7.6,46.5,4.6,48.4z M20.9,50.2H0.3v-0.8
		c0-0.1,0-0.2,0-0.3V14.6c0-7.9,6.4-14.3,14.3-14.3C22.5,0.2,29,6.7,29,14.6c0,2.9-0.5,5.8-1.5,8.7c4.6,2.4,7.7,7.2,7.7,12.7
		C35.2,43.8,28.8,50.2,20.9,50.2z">
  </path>
  <path class="st1" d="M2.2,21.6H1.9v0.2h0.3V21.6z M25.8,22.5l-0.1,0.2l0.2,0.1l0.1-0.2L25.8,22.5z M2.2,23.5v-0.2H1.9v0.2H2.2z
		 M2.2,47.6H1.9v0.4l0.4-0.2L2.2,47.6z M25.1,24.2l0.2,0.1l0.1-0.2L25.2,24L25.1,24.2z M4.6,48.4l-0.1-0.2l-0.8,0.5h0.9V48.4z
		 M26.8,25l0.1-0.2l-0.2-0.1l-0.1,0.3L26.8,25z M17.2,38.6L17,38.5l0,0L17.2,38.6z M0.3,50.2H0v0.2h0.2V50.2z M0.3,49.4h0.2v0l0,0
		L0.3,49.4z M0.3,49.1l0.2,0.1l0,0v0H0.3z M27.5,23.2l-0.2-0.1l-0.1,0.2l0.2,0.1L27.5,23.2z M2.2,21.9h18.8v-0.5H2.2V21.9z
		 M20.9,21.9c1.7,0,3.3,0.3,4.7,0.8l0.2-0.5c-1.5-0.5-3.2-0.8-4.9-0.8V21.9z M26,22.5c1.1-3.1,1.4-5.9,1.4-8h-0.5
		c0,2.1-0.3,4.7-1.3,7.8L26,22.5z M27.3,14.6c0-7-5.7-12.7-12.7-12.7v0.5c6.7,0,12.2,5.5,12.2,12.2H27.3z M14.6,1.9
		c-7,0-12.7,5.7-12.7,12.7h0.5c0-6.7,5.5-12.2,12.2-12.2V1.9z M1.9,14.6v7.1h0.5v-7.1H1.9z M1.9,23.5v24.1h0.5V23.5H1.9z M2.3,47.9
		c13.8-8.2,20.2-16.7,23-23.5l-0.5-0.2c-2.7,6.7-9,15.1-22.8,23.3L2.3,47.9z M25.2,24c-1.3-0.5-2.7-0.7-4.2-0.7v0.5
		c1.4,0,2.8,0.3,4.1,0.7L25.2,24z M20.9,23.3H2.2v0.5h18.8V23.3z M4.6,48.6h16.3v-0.5H4.6V48.6z M20.9,48.6c7,0,12.7-5.7,12.7-12.7
		h-0.5c0,6.7-5.5,12.2-12.2,12.2V48.6z M33.6,35.9c0-4.8-2.7-9-6.7-11.2l-0.2,0.4c3.8,2.1,6.4,6.1,6.4,10.7H33.6z M26.6,24.9
		c-1.9,4.6-5.1,9.2-9.6,13.6l0.4,0.4c4.5-4.4,7.8-9,9.7-13.7L26.6,24.9z M17,38.5c-4.6,4.5-9.5,7.8-12.5,9.7l0.3,0.4
		c3-1.9,8-5.2,12.6-9.8L17,38.5z M20.9,50H0.3v0.5h20.6V50z M0.5,50.2v-0.8H0v0.8H0.5z M0.5,49.4c0-0.1,0-0.2,0-0.2L0,49
		c0,0.2,0,0.3,0,0.5L0.5,49.4z M0.5,49.1V14.6H0v34.5H0.5z M0.5,14.6c0-7.8,6.3-14.1,14.1-14.1V0C6.6,0,0,6.5,0,14.6H0.5z M14.6,0.5
		c7.8,0,14.1,6.3,14.1,14.1h0.5c0-8-6.5-14.6-14.6-14.6V0.5z M28.7,14.6c0,2.9-0.5,5.8-1.4,8.6l0.5,0.2c1-2.9,1.5-5.8,1.5-8.8H28.7z
		 M27.4,23.5c4.5,2.4,7.6,7,7.6,12.5h0.5c0-5.6-3.2-10.5-7.9-12.9L27.4,23.5z M35,36c0,7.7-6.3,14-14.1,14v0.5
		c8,0,14.6-6.5,14.6-14.5H35z">
  </path>
  <path class="st0" d="M58.2,31.1h2.4c0.3,0,0.7,0,1.1-0.1c0.4,0,0.7-0.2,1.1-0.3c0.3-0.2,0.6-0.4,0.8-0.7c0.2-0.3,0.3-0.7,0.3-1.2
		c0-0.8-0.3-1.3-0.8-1.6c-0.5-0.3-1.3-0.5-2.4-0.5h-2.5V31.1z M58.2,24.5h2.3c0.9,0,1.5-0.2,2-0.5c0.5-0.4,0.7-0.8,0.7-1.5
		c0-0.7-0.2-1.2-0.7-1.4c-0.5-0.3-1.2-0.4-2.2-0.4h-2.1V24.5z M55.6,18.4h5.8c0.6,0,1.1,0.1,1.6,0.2c0.5,0.1,1,0.4,1.4,0.7
		c0.4,0.3,0.8,0.7,1,1.2c0.3,0.5,0.4,1.1,0.4,1.7c0,0.8-0.2,1.5-0.7,2.1c-0.5,0.5-1.1,0.9-1.9,1.2v0c0.9,0.1,1.7,0.5,2.3,1.1
		c0.6,0.6,0.9,1.4,0.9,2.4c0,0.8-0.2,1.5-0.5,2.1c-0.3,0.6-0.7,1-1.3,1.3c-0.5,0.3-1.1,0.6-1.8,0.7c-0.7,0.1-1.4,0.2-2.1,0.2h-5.3
		V18.4z">
  </path>
  <path class="st0" d="M72.8,33.3h2.6V18.4h-2.6V33.3z">
  </path>
  <path class="st0" d="M82.4,18.4h2.6V31h6.3v2.4h-8.9V18.4z">
  </path>
  <path class="st0" d="M96.8,18.4h2.6V31h6.3v2.4h-8.9V18.4z">
  </path>
  <path class="st0" d="M111.2,33.3h2.6V18.4h-2.6V33.3z">
  </path>
  <path class="st0" d="M120.8,18.4h9.8v2.3h-7.1v3.8h6.8v2.2h-6.8V31h7.5v2.4h-10.1V18.4z">
  </path>
 </g>
</svg>