<svg version="1.1" id="Layer_1" xmlns="http://www.w3.org/2000/svg" xmlns:xlink="http://www.w3.org/1999/xlink" x="0px" y="0px" viewBox="0 0 198.3 50" style="enable-background:new 0 0 198.3 50;" xml:space="preserve">
 <style type="text/css">
  .st0{fill-rule:evenodd;clip-rule:evenodd;fill:#1677FF;}
	.st1{fill-rule:evenodd;clip-rule:evenodd;}
 </style>
 <g>
  <g transform="translate(0 1)">
   <path class="st0" d="M40.8,30.4c7.1,2.4,8.8,2.5,8.8,2.5V7c0-4.4-3.6-8-7.9-8H7.9C3.6-1,0,2.6,0,7v34c0,4.4,3.6,8,7.9,8h33.7
			c4.4,0,7.9-3.6,7.9-8v-0.3c0,0-12.9-5.4-19.4-8.6c-4.4,5.4-10,8.7-15.8,8.7c-9.9,0-13.3-8.7-8.6-14.5c1-1.3,2.8-2.4,5.5-3.1
			c4.2-1,10.9,0.7,17.2,2.7c1.1-2.1,2.1-4.4,2.8-6.9H11.8v-2h10v-3.5H9.7v-2h12.1V6.5c0,0,0-0.9,0.9-0.9h4.9v5.9h12v2h-12v3.5h9.8
			c-0.9,3.9-2.4,7.4-4.1,10.5C36.2,28.7,38.8,29.7,40.8,30.4">
   </path>
   <path class="st0" d="M12,26.2c-1.2,0.1-3.6,0.7-4.8,1.8c-3.8,3.4-1.5,9.5,6.2,9.5c4.5,0,9-2.9,12.5-7.5
			C20.9,27.5,16.6,25.7,12,26.2">
   </path>
   <path class="st0" d="M107.6,6.3c0,2.6,1.9,4.3,4.5,4.3c2.6,0,4.5-1.7,4.5-4.3c0-2.5-1.9-4.3-4.5-4.3C109.5,2,107.6,3.8,107.6,6.3">
   </path>
   <path class="st1" d="M95,39.4h7.9V3.1H95V39.4z">
   </path>
   <path class="st1" d="M69.8,26.8l4.7-16.2h0.2l4.4,16.2H69.8z M81.2,4.3H70.7L58.9,39.4h7.3l2-6.9h12.5l1.9,6.9h9.3L81.2,4.3z">
   </path>
   <path class="st1" d="M108.2,39.4h7.9V12.7h-7.9V39.4z">
   </path>
   <path class="st1" d="M198.2,12.8L198.2,12.8l-7.4,0L186.2,29H186l-5.4-16.2h-8.8l10.6,26.8l-4.4,8.2v0.2h6.9L198.2,12.8z">
   </path>
   <path class="st1" d="M130.7,34.8c-0.9,0-1.7-0.1-2.7-0.4V20c1.6-1.1,3-1.7,4.7-1.7c2.9,0,5.3,2.3,5.3,7.3
			C137.9,32,134.5,34.8,130.7,34.8 M135.7,12.2c-2.9,0-5.1,1.1-7.7,3.2v-2.6h-7.9v35.1h7.9v-8.7c1.5,0.4,2.9,0.6,4.6,0.6
			c7,0,13.3-5.2,13.3-14.4C145.9,17.1,141.3,12.2,135.7,12.2">
   </path>
   <path class="st1" d="M162.4,32.9c-2.1,1.1-3.3,1.6-4.7,1.6c-1.9,0-3.1-1.2-3.1-3.2c0-0.7,0.1-1.5,0.7-2.1c0.9-0.9,2.8-1.6,7-2.6
			L162.4,32.9z M170.2,32.7V21.6c0-6.1-3.6-9.4-9.9-9.4c-4,0-6.8,0.7-11.9,2.2l1.4,6.1c4.6-2.1,6.7-3,8.8-3c2.6,0,3.7,1.8,3.7,4.7
			v0.2c-9,1.7-11.8,2.6-13.5,4.4c-1.3,1.3-1.8,3.1-1.8,5.3c0,5.1,4,7.9,7.7,7.9c2.8,0,5-1,8.1-3.3l0.5,2.8h7.9L170.2,32.7z">
   </path>
  </g>
 </g>
</svg>