<svg version="1.1" id="Layer_1" xmlns:x="ns_extend;" xmlns:i="ns_ai;" xmlns:graph="ns_graphs;" xmlns="http://www.w3.org/2000/svg" xmlns:xlink="http://www.w3.org/1999/xlink" x="0px" y="0px" viewBox="0 0 168.2 50" style="enable-background:new 0 0 168.2 50;" xml:space="preserve">
 <style type="text/css">
  .st0{fill-rule:evenodd;clip-rule:evenodd;fill:#05C0C7;}
 </style>
 <metadata>
  <sfw xmlns="ns_sfw;">
   <slices>
   </slices>
   <sliceSourceBounds bottomLeftOrigin="true" height="50" width="168.2" x="-26.9" y="-205.3">
   </sliceSourceBounds>
   <optimizationSettings>
    <targetSettings fileFormat="PNG24Format" targetSettingsID="0">
     <PNG24Format filtered="false" interlaced="false" matteColor="#FFFFFF" noMatteColor="false" transparency="true">
     </PNG24Format>
    </targetSettings>
   </optimizationSettings>
  </sfw>
 </metadata>
 <g>
  <path class="st0" d="M83.1,17.8c-1.4,0-2.6,1.2-2.6,2.5v19.2c0,1.4,1.2,2.6,2.6,2.6c1.4,0,2.6-1.2,2.6-2.6V20.4
		C85.7,19,84.6,17.8,83.1,17.8z M83.1,8.3c-1.6,0-2.9,1.3-2.9,2.9c0,1.6,1.3,3,2.9,3c1.6,0,2.9-1.3,2.9-3
		C86.1,9.6,84.7,8.3,83.1,8.3z M108.5,20.4c0-1.6-1.3-2.2-2.4-2.2H93.1c-1.3,0-2.3,1-2.3,2.2c0,1.3,1,2.3,2.3,2.3h8.5L90.7,37.9
		c-0.3,0.4-0.5,1.1-0.5,1.5c0,1.6,1.3,2.5,2.4,2.5h13.7c1.3,0,2.3-1,2.3-2.3c0-1.3-1-2.3-2.3-2.3H97l10.7-14.9
		C108.3,21.7,108.5,21,108.5,20.4z M70.5,32.4c0,3.2-1.4,5.1-4.5,5.1c-3.2,0-4.5-1.9-4.5-5.1v-9.8h4.7c3.8,0,4.3,2.1,4.3,4.4V32.4z
		 M75.7,26.9c0-5.4-2.8-8.8-9.4-8.8h-4.8v-7.2c0-1.4-1.2-2.6-2.5-2.6c-1.4,0-2.6,1.2-2.6,2.6v21.6c0,5.4,2.9,9.7,9.7,9.7
		c6.7,0,9.7-4.4,9.7-9.7V27L75.7,26.9L75.7,26.9z M128.7,17.8c-1.4,0-2.6,1.2-2.6,2.6v12c0,3.2-1.4,5.1-4.5,5.1
		c-3.2,0-4.5-1.9-4.5-5.1v-12c0-1.4-1.2-2.6-2.5-2.6c-1.4,0-2.6,1.2-2.6,2.6v12c0,5.4,2.9,9.7,9.7,9.7c6.7,0,9.7-4.4,9.7-9.7v-12
		C131.3,19,130.1,17.8,128.7,17.8z M168.2,27.6c0-5.4-2.5-9.7-9.2-9.7c-3,0-5.2,0.9-6.7,2.4c-1.5-1.4-3.6-2.4-6.7-2.4
		c-6.7,0-9.2,4.4-9.2,9.7v12c0,1.4,1.2,2.6,2.5,2.6c1.4,0,2.6-1.2,2.6-2.6v-12c0-3.2,1-5.1,4.1-5.1c3.1,0,4.1,1.9,4.1,5.1v12
		c0,1.4,1.2,2.6,2.5,2.6c1.4,0,2.6-1.2,2.6-2.6v-12c0-3.2,1-5.1,4.1-5.1c3.1,0,4.1,1.9,4.1,5.1v12c0,1.4,1.2,2.6,2.5,2.6
		c1.4,0,2.6-1.2,2.6-2.6L168.2,27.6z M9.2,17.9c1.8,1.3,4.4,0.9,5.7-0.9l4.8-6.6C21,8.6,20.6,6,18.8,4.7c-1.8-1.3-4.4-0.9-5.7,0.9
		l-4.8,6.6C7,14,7.4,16.5,9.2,17.9z M31,8.6c-1.8-1.3-4.4-0.9-5.7,0.9L6.1,35.8c-1.3,1.8-0.9,4.4,0.9,5.7c1.8,1.3,4.4,0.9,5.7-0.9
		l19.1-26.3C33.2,12.5,32.8,9.9,31,8.6z M7.4,6.5c1.3-1.8,0.9-4.4-0.9-5.7C4.7-0.5,2.1-0.2,0.8,1.7C-0.5,3.5-0.2,6,1.7,7.4
		C3.5,8.7,6,8.3,7.4,6.5z M36.4,42.6c-1.8-1.3-4.4-0.9-5.7,0.9c-1.3,1.8-0.9,4.4,0.9,5.7c1.8,1.3,4.4,0.9,5.7-0.9
		C38.6,46.5,38.2,44,36.4,42.6z M28.9,32.2c-1.8-1.3-4.4-0.9-5.7,0.9l-4.8,6.6c-1.3,1.8-0.9,4.4,0.9,5.7c1.8,1.3,4.4,0.9,5.7-0.9
		l4.8-6.6C31.1,36.1,30.7,33.5,28.9,32.2z">
  </path>
 </g>
</svg>