<svg xmlns="http://www.w3.org/2000/svg" fill="none" viewBox="0 0 40 26"><path fill="#B2FCE4" d="M0 13h40v13H0z"/><path fill="#000" d="m29.399 17.795-2.187 4.516h-.889l.818-1.69-1.298-2.826h.889l.827 1.893.889-1.893zm-8.321 1.6a.889.889 0 1 0-1.778 0 .889.889 0 0 0 1.778 0m-2.534 2.907v-4.507h.791v.417a1.25 1.25 0 0 1 1.005-.47 1.574 1.574 0 0 1 1.547 1.653 1.6 1.6 0 0 1-1.565 1.662 1.24 1.24 0 0 1-.969-.435v1.689zm6.188-2.907a.889.889 0 1 0-1.777 0 .889.889 0 0 0 1.777 0m0 1.6v-.418a1.29 1.29 0 0 1-1.014.471 1.566 1.566 0 0 1-1.538-1.653 1.6 1.6 0 0 1 1.565-1.663 1.25 1.25 0 0 1 .987.463v-.4h.79v3.209zm-7.61-2.88a.844.844 0 0 1 1.04-.302v.817a.96.96 0 0 0-.569-.124.56.56 0 0 0-.445.613v1.903h-.808v-3.227h.782zm18.393-.498-.933-.534-.942-.542a.942.942 0 0 0-1.405.818v.116a.18.18 0 0 0 .089.16l.444.257a.177.177 0 0 0 .246-.069.2.2 0 0 0 .021-.09v-.285a.187.187 0 0 1 .294-.169l.889.498.888.498a.187.187 0 0 1 0 .32l-.889.498-.889.489a.187.187 0 0 1-.284-.16v-.143a.944.944 0 0 0-1.414-.773l-.969.498-.889.542a.933.933 0 0 0 0 1.627l.934.533.942.543a.934.934 0 0 0 1.405-.818v-.116a.18.18 0 0 0-.089-.16l-.436-.258a.187.187 0 0 0-.275.16v.285a.186.186 0 0 1-.285.169l-.889-.498-.889-.498a.186.186 0 0 1 0-.32l.89-.498.888-.489a.186.186 0 0 1 .285.16v.143a.942.942 0 0 0 1.404.817l.943-.542.933-.542a.935.935 0 0 0-.018-1.627M7.28 19.804a1.61 1.61 0 0 1-1.626 1.245 1.654 1.654 0 0 1 0-3.308 1.6 1.6 0 0 1 1.6 1.227h-.81a.89.89 0 0 0-.773-.462.889.889 0 1 0 0 1.778.83.83 0 0 0 .774-.507zm.374 1.191V16.48h.782v4.516zm2.018-1.387a.81.81 0 0 0 .827.747.89.89 0 0 0 .755-.418h.827a1.574 1.574 0 0 1-1.6 1.111 1.574 1.574 0 0 1-1.645-1.653 1.62 1.62 0 0 1 1.663-1.663 1.6 1.6 0 0 1 1.644 1.663q.015.103 0 .204zm1.609-.498a.764.764 0 0 0-.791-.666.79.79 0 0 0-.81.666zm3.743 1.885v-.409a1.3 1.3 0 0 1-1.014.463 1.565 1.565 0 0 1-1.547-1.654 1.59 1.59 0 0 1 1.565-1.654 1.28 1.28 0 0 1 .996.463v-.41h.782v3.201zm0-1.6a.889.889 0 1 0-.89.889.89.89 0 0 0 .88-.89zM0 0h40v13H0z"/><path fill="#B2FCE4" d="m35.512 4.663-.962-.553-.976-.56a.97.97 0 0 0-1.454.842v.126c0 .069.037.132.096.166l.453.26a.19.19 0 0 0 .283-.163v-.298c0-.147.159-.24.287-.166l.892.512.89.51a.192.192 0 0 1 0 .333l-.89.51-.892.512a.192.192 0 0 1-.287-.166V6.38a.97.97 0 0 0-1.454-.842l-.976.56-.963.553a.97.97 0 0 0 0 1.684l.963.552.976.56a.97.97 0 0 0 1.454-.842v-.126a.19.19 0 0 0-.097-.167l-.452-.26a.19.19 0 0 0-.283.164v.298c0 .147-.16.24-.287.166l-.892-.512-.89-.51a.192.192 0 0 1 0-.333l.89-.51.892-.513a.192.192 0 0 1 .287.167v.148a.97.97 0 0 0 1.454.842l.976-.56.962-.553a.97.97 0 0 0 0-1.683m-6.322.184-2.257 4.66h-.937l.844-1.741-1.327-2.92h.961l.852 1.955.931-1.954zM6.634 6.501c0-.556-.404-.946-.9-.946-.497 0-.9.397-.9.946 0 .543.403.947.9.947.496 0 .9-.39.9-.947m.007 1.655v-.43a1.33 1.33 0 0 1-1.046.483C4.688 8.209 4 7.48 4 6.5c0-.973.715-1.714 1.615-1.714.423 0 .78.186 1.026.477v-.417h.814v3.309zm4.769-.735c-.286 0-.365-.106-.365-.384V5.568h.523v-.721h-.523v-.808h-.834v.808H9.137v-.33c0-.278.106-.383.397-.383h.183v-.642h-.401c-.689 0-1.013.225-1.013.913v.442H7.84v.721h.463v2.588h.834V5.568h1.074V7.19c0 .675.258.966.933.966h.43v-.735zm2.99-1.217c-.06-.43-.41-.689-.82-.689a.82.82 0 0 0-.834.689zm-1.66.516c.059.49.41.767.853.767.35 0 .622-.165.78-.43h.854c-.198.702-.827 1.152-1.654 1.152-1 0-1.7-.702-1.7-1.701s.74-1.721 1.72-1.721c.986 0 1.7.728 1.7 1.72q0 .111-.02.212zm7.857-.219c0-.536-.404-.946-.9-.946s-.9.397-.9.946c0 .543.404.947.9.947.497 0 .9-.41.9-.947m-2.62 3.006v-4.66h.814v.43a1.31 1.31 0 0 1 1.045-.49c.894 0 1.595.735 1.595 1.708s-.714 1.714-1.614 1.714a1.28 1.28 0 0 1-1-.444v1.742zm6.387-3.006c0-.556-.403-.946-.9-.946-.496 0-.9.397-.9.946 0 .543.404.947.9.947.497 0 .9-.39.9-.947m.007 1.655v-.43a1.33 1.33 0 0 1-1.045.483c-.907 0-1.596-.728-1.596-1.708 0-.973.715-1.714 1.615-1.714.424 0 .781.186 1.026.477v-.417h.814v3.309zM16.51 5.171s.207-.384.714-.384c.217 0 .357.075.357.075v.844s-.306-.189-.587-.15c-.281.037-.459.296-.458.641v1.96h-.84v-3.31h.813z"/></svg>